<svg xmlns="http://www.w3.org/2000/svg" xmlns:xlink="http://www.w3.org/1999/xlink" width="80" height="80" viewBox="0 0 80 80">
  <defs>
    <clipPath id="clip-path">
      <rect id="Rectangle_63" data-name="Rectangle 63" width="80" height="80" transform="translate(530 3240)" fill="#55a2e5"/>
    </clipPath>
  </defs>
  <g id="Mask_Group_5" data-name="Mask Group 5" transform="translate(-530 -3240)" clip-path="url(#clip-path)">
    <path id="water-solid" d="M78.083,53.329a16.044,16.044,0,0,1-8.043-3.181,5.386,5.386,0,0,0-6.7,0c-5.265,4.223-14.891,4.223-20.24-.208a5.155,5.155,0,0,0-6.487.25c-5.279,4.181-14.85,4.167-20.17-.236a5.237,5.237,0,0,0-6.543.278,15.75,15.75,0,0,1-8.015,3.112A2.158,2.158,0,0,0,0,55.523V60a2.192,2.192,0,0,0,2.32,2.223,24.966,24.966,0,0,0,11.03-3.6c7.849,4.806,19.031,4.737,26.671,0,7.849,4.806,19.031,4.737,26.671,0A25.681,25.681,0,0,0,77.68,62.205,2.192,2.192,0,0,0,80,59.983v-4.39A2.23,2.23,0,0,0,78.083,53.329Zm0-20a16.044,16.044,0,0,1-8.043-3.181,5.386,5.386,0,0,0-6.7,0c-5.265,4.223-14.891,4.223-20.24-.208a5.155,5.155,0,0,0-6.487.25c-5.279,4.181-14.85,4.167-20.17-.236a5.237,5.237,0,0,0-6.543.278,15.75,15.75,0,0,1-8.015,3.112A2.158,2.158,0,0,0,0,35.52v4.473a2.192,2.192,0,0,0,2.32,2.223,24.966,24.966,0,0,0,11.03-3.6c7.849,4.806,19.031,4.737,26.671,0,7.849,4.806,19.031,4.737,26.671,0A25.681,25.681,0,0,0,77.68,42.2,2.192,2.192,0,0,0,80,39.979v-4.39A2.23,2.23,0,0,0,78.083,33.325Zm0-20a16.171,16.171,0,0,1-8.043-3.181,5.386,5.386,0,0,0-6.7,0c-5.265,4.223-14.891,4.223-20.24-.208a5.155,5.155,0,0,0-6.487.25c-5.279,4.181-14.85,4.167-20.17-.236a5.237,5.237,0,0,0-6.543.278,15.751,15.751,0,0,1-8.015,3.112A2.158,2.158,0,0,0,0,15.517V19.99a2.192,2.192,0,0,0,2.32,2.223,24.966,24.966,0,0,0,11.03-3.6c7.849,4.806,19.031,4.737,26.671,0,7.849,4.806,19.031,4.737,26.671,0A25.681,25.681,0,0,0,77.68,22.2,2.192,2.192,0,0,0,80,19.976v-4.39a2.23,2.23,0,0,0-1.917-2.264Z" transform="translate(530 3244.438)" fill="#55a2e5"/>
  </g>
</svg>
