<svg xmlns="http://www.w3.org/2000/svg" xmlns:xlink="http://www.w3.org/1999/xlink" width="80" height="80" viewBox="0 0 80 80">
  <defs>
    <clipPath id="clip-path">
      <rect id="Rectangle_63" data-name="Rectangle 63" width="80" height="80" transform="translate(530 3596)" fill="#3e3e3e"/>
    </clipPath>
  </defs>
  <g id="Mask_Group_3" data-name="Mask Group 3" transform="translate(-530 -3596)" clip-path="url(#clip-path)">
    <path id="tasks-solid" d="M21.814,5.547a1.875,1.875,0,0,0-2.656,0l-9.95,9.892L5.661,11.983a1.875,1.875,0,0,0-2.656,0L.552,14.439a1.875,1.875,0,0,0,0,2.656L7.988,24.5a2,2,0,0,0,2.752,0l2.436-2.441,11.281-11.28a1.889,1.889,0,0,0,.014-2.656Zm0,24.873a1.875,1.875,0,0,0-2.656,0l-9.95,9.956L5.661,36.923a1.875,1.875,0,0,0-2.656,0L.552,39.375a1.875,1.875,0,0,0,0,2.656l7.417,7.422a2,2,0,0,0,2.75,0L13.172,47,24.453,35.717a1.875,1.875,0,0,0,.014-2.641ZM10,57.5a7.5,7.5,0,1,0,0,15,7.5,7.5,0,1,0,0-15ZM77.5,60h-45A2.5,2.5,0,0,0,30,62.5v5A2.5,2.5,0,0,0,32.5,70h45A2.5,2.5,0,0,0,80,67.5v-5A2.5,2.5,0,0,0,77.5,60Zm0-50h-45A2.5,2.5,0,0,0,30,12.5v5A2.5,2.5,0,0,0,32.5,20h45A2.5,2.5,0,0,0,80,17.5v-5A2.5,2.5,0,0,0,77.5,10Zm0,25h-45A2.5,2.5,0,0,0,30,37.5v5A2.5,2.5,0,0,0,32.5,45h45A2.5,2.5,0,0,0,80,42.5v-5A2.5,2.5,0,0,0,77.5,35Z" transform="translate(530 3597.252)" fill="#55a2e5"/>
  </g>
</svg>
