<svg xmlns="http://www.w3.org/2000/svg" xmlns:xlink="http://www.w3.org/1999/xlink" width="80" height="80" viewBox="0 0 80 80">
  <defs>
    <clipPath id="clip-path">
      <rect id="Rectangle_63" data-name="Rectangle 63" width="80" height="80" transform="translate(920 3596)" fill="#3e3e3e"/>
    </clipPath>
  </defs>
  <g id="Mask_Group_4" data-name="Mask Group 4" transform="translate(-920 -3596)" clip-path="url(#clip-path)">
    <path id="thermometer-half-solid" d="M30,60a10,10,0,1,1-15-8.659V35a5,5,0,0,1,10,0V51.341A9.994,9.994,0,0,1,30,60Zm5-13.227A20,20,0,0,1,20,80h-.142A20,20,0,0,1,5,46.773V15a15,15,0,0,1,30,0ZM32.5,60c0-5.365-3.027-8.155-5-10.391V15a7.5,7.5,0,0,0-15,0V49.609c-1.989,2.254-4.973,5.016-5,10.325A12.551,12.551,0,0,0,19.91,72.5H20A12.514,12.514,0,0,0,32.5,60Z" transform="translate(940 3596)" fill="#55a2e5"/>
  </g>
</svg>
